<?xml version="1.0" encoding="UTF-8"?><svg id="a" xmlns="http://www.w3.org/2000/svg" viewBox="0 0 20 20"><rect width="20" height="20" fill="#fff"/><g id="b"><g id="c"><path d="m3.5,7.61l1.79-2.69m-1.12,3.14l1.83-2.69m-1.16,3.14l1.8-2.69"/><path d="m5.07,8.66l-.45-.3,1.79-2.69.45.3-1.79,2.69Zm-.67-.45l-.4-.3,1.74-2.69.45.3-1.79,2.69Zm-.68-.45l-.44-.3,1.79-2.69.45.3-1.8,2.69Z"/></g><g id="d"><path d="m13.36,14.18l1.8-2.69m-1.16,3.14l1.8-2.69m-1.12,3.14l1.79-2.69"/><path d="m14.93,15.23l-.45-.3,1.8-2.69.45.3-1.8,2.69Zm-.67-.45l-.45-.3,1.79-2.69.45.3-1.79,2.69Zm-.67-.45l-.45-.3,1.79-2.69.45.3-1.79,2.69Z"/></g></g><path d="m13.81,12.54l2.24,1.46"/><rect x="14.792" y="11.934" width=".27" height="2.69" transform="translate(-4.401 18.337) rotate(-56.32)" fill="#fff"/><circle cx="10" cy="10" r="3.23" fill="#cd2e3a"/><path d="m7.31,8.21c-.439.779-.163,1.767.616,2.207.699.394,1.581.217,2.074-.417.439-.779,1.427-1.055,2.207-.616.779.439,1.055,1.427.616,2.207-.039.07-.084.136-.133.199-.989,1.486-2.994,1.889-4.48.9-1.486-.989-1.889-2.994-.9-4.48h0Z" fill="#0047a0"/><g id="e"><g id="f"><path d="m5.29,15.08l-1.79-2.69m2.5,2.24l-1.8-2.69m2.47,2.24l-1.8-2.69"/><path d="m5.07,15.23l-1.79-2.69.44-.3,1.8,2.69-.45.3Zm.67-.45l-1.74-2.69.45-.3,1.79,2.69-.5.3Zm.67-.45l-1.79-2.69.45-.3,1.79,2.66-.45.33Z"/></g><g id="g"><path d="m15.16,8.51l-1.8-2.69m2.47,2.24l-1.83-2.69m2.5,2.24l-1.79-2.69"/><path d="m14.93,8.66l-1.79-2.66.45-.3,1.79,2.69-.45.27Zm.67-.45l-1.79-2.69.45-.3,1.79,2.69-.45.3Zm.68-.45l-1.8-2.69.45-.3,1.8,2.69-.45.3Z"/></g></g><path d="m4.73,13.51l.68-.45m8.4-5.6l.78-.52m.68-.45l.67-.49"/><path d="m4.81,13.62l-.15-.22.67-.4.15.23-.67.39Zm9.08-6l-.15-.22.78-.53.15.23-.78.52Zm1.45-1l-.15-.22.68-.45.14.22-.67.45Z" fill="#fff"/></svg>