<?xml version="1.0" encoding="UTF-8"?><svg id="a" xmlns="http://www.w3.org/2000/svg" xmlns:xlink="http://www.w3.org/1999/xlink" viewBox="0 0 20 20"><defs><clipPath id="b"><rect width="20" height="20" fill="none"/></clipPath></defs><g clip-path="url(#b)"><rect width="20" height="20" fill="#fff"/><rect width="20" height="1.54" fill="#d80027"/><rect y="3.08" width="20" height="1.54" fill="#d80027"/><rect y="6.15" width="20" height="1.54" fill="#d80027"/><rect y="9.23" width="20" height="1.54" fill="#d80027"/><rect y="12.3" width="20" height="1.55" fill="#d80027"/><rect y="15.376" width="20" height="1.54" fill="#d80027"/><rect x="-.018" y="18.46" width="20" height="1.54" fill="#d80027"/><rect x="-2.08" width="15.2" height="10.77" fill="#0052b4"/><g id="c"><g id="d"><g id="e"><g id="f"><path d="m.45,1.54l.36,1.11-.94-.65h1.13L.05,2.69l.4-1.15Z" fill="#fff"/></g><g id="g"><path d="m.45,3.69l.36,1.12-.94-.69h1.13L.05,4.81l.4-1.12Z" fill="#fff"/></g><g id="h"><path d="m.45,5.85l.36,1.15-.94-.69h1.13l-.91.69.36-1.15Z" fill="#fff"/></g><g id="i"><path d="m.45,8l.36,1.11-.94-.68h1.13l-.95.68.4-1.11Z" fill="#fff"/></g></g></g><g id="j"><g id="k"><g id="l"><g id="m"><path d="m1.72.46l.36,1.11-1-.68h1.22l-.94.68.36-1.11Z" fill="#fff"/></g><g id="n"><path d="m1.72,2.62l.36,1.11-.95-.73h1.17l-.94.69.36-1.07Z" fill="#fff"/></g><g id="o"><path d="m1.72,4.77l.36,1.11-1-.69h1.22l-.94.69.36-1.11Z" fill="#fff"/></g><g id="p"><path d="m1.72,6.92l.36,1.08-1-.69h1.22l-.94.69.36-1.08Z" fill="#fff"/></g></g><g id="q"><path d="m1.72,9.08l.36,1.11-1-.69h1.22l-.94.69.36-1.11Z" fill="#fff"/></g></g><g id="r"><g id="s"><path d="m3,1.54l.36,1.11-.96-.65h1.17l-.95.69.38-1.15Z" fill="#fff"/></g><g id="t"><path d="m3,3.69l.36,1.12-1-.69h1.21l-.95.69.38-1.12Z" fill="#fff"/></g><g id="u"><path d="m3,5.85l.35,1.15-1-.69h1.22l-.95.69.38-1.15Z" fill="#fff"/></g><g id="v"><path d="m3,8l.36,1.11-1-.68h1.21l-.95.68.38-1.11Z" fill="#fff"/></g></g></g></g><g id="w"><g id="x"><g id="y"><g id="z"><g id="aa"><path d="m4.25.46l.36,1.11-.94-.68h1.17l-.95.68.36-1.11Z" fill="#fff"/></g><g id="ab"><path d="m4.25,2.62l.36,1.11-.94-.73h1.17l-.95.69.36-1.07Z" fill="#fff"/></g><g id="ac"><path d="m4.25,4.77l.36,1.11-.94-.69h1.17l-.95.69.36-1.11Z" fill="#fff"/></g><g id="ad"><path d="m4.25,6.92l.36,1.08-.94-.69h1.17l-.95.69.36-1.08Z" fill="#fff"/></g></g><g id="ae"><path d="m4.25,9.08l.36,1.11-.94-.69h1.17l-.95.69.36-1.11Z" fill="#fff"/></g></g><g id="af"><g id="ag"><path d="m5.52,1.54l.36,1.11-.95-.65h1.17l-.94.69.36-1.15Z" fill="#fff"/></g><g id="ah"><path d="m5.52,3.69l.36,1.12-1-.69h1.22l-.94.69.36-1.12Z" fill="#fff"/></g><g id="ai"><path d="m5.52,5.85l.36,1.15-1-.69h1.22l-.94.69.36-1.15Z" fill="#fff"/></g><g id="aj"><path d="m5.52,8l.36,1.11-1-.68h1.22l-.94.68.36-1.11Z" fill="#fff"/></g></g></g><g id="ak"><g id="al"><g id="am"><g id="an"><path d="m6.79.46l.36,1.11-.95-.68h1.17l-1,.68.42-1.11Z" fill="#fff"/></g><g id="ao"><path d="m6.79,2.62l.36,1.11-.95-.73h1.17l-1,.69.42-1.07Z" fill="#fff"/></g><g id="ap"><path d="m6.79,4.77l.36,1.11-1-.69h1.22l-1,.69.42-1.11Z" fill="#fff"/></g><g id="aq"><path d="m6.79,6.92l.36,1.08-1-.69h1.22l-.95.69.37-1.08Z" fill="#fff"/></g></g><g id="ar"><path d="m6.79,9.08l.36,1.11-1-.69h1.22l-1,.69.42-1.11Z" fill="#fff"/></g></g><g id="as"><g id="at"><path d="m8.05,1.54l.36,1.11-.94-.65h1.17l-1,.69.41-1.15Z" fill="#fff"/></g><g id="au"><path d="m8.05,3.69l.36,1.12-.94-.69h1.17l-1,.69.41-1.12Z" fill="#fff"/></g><g id="av"><path d="m8.05,5.85l.36,1.15-.94-.69h1.17l-.95.69.36-1.15Z" fill="#fff"/></g><g id="aw"><path d="m8.05,8l.36,1.11-.94-.68h1.17l-1,.68.41-1.11Z" fill="#fff"/></g></g></g></g><g id="ax"><g id="ay"><g id="az"><g id="ba"><path d="m9.32.46l.36,1.11-.95-.68h1.17l-.9.68.32-1.11Z" fill="#fff"/></g><g id="bb"><path d="m9.32,2.62l.36,1.11-.95-.73h1.17l-.9.73.32-1.11Z" fill="#fff"/></g><g id="bc"><path d="m9.32,4.77l.36,1.11-.95-.69h1.17l-.9.69.32-1.11Z" fill="#fff"/></g><g id="bd"><path d="m9.32,6.92l.36,1.08-.95-.69h1.17l-.9.69.32-1.08Z" fill="#fff"/></g></g><g id="be"><path d="m9.32,9.08l.36,1.11-.95-.69h1.17l-.9.69.32-1.11Z" fill="#fff"/></g></g><g id="bf"><g id="bg"><path d="m10.59,1.54l.41,1.11-1-.65h1.17l-.95.69.37-1.15Z" fill="#fff"/></g><g id="bh"><path d="m10.59,3.69l.41,1.12-1-.69h1.17l-.95.69.37-1.12Z" fill="#fff"/></g><g id="bi"><path d="m10.59,5.85l.41,1.15-1-.73h1.17l-.95.73.37-1.15Z" fill="#fff"/></g><g id="bj"><path d="m10.59,8l.41,1.11-1-.68h1.17l-.95.68.37-1.11Z" fill="#fff"/></g></g></g><g id="bk"><g id="bl"><g id="bm"><path d="m11.85.46l.36,1.11-.94-.68h1.17l-.95.68.36-1.11Z" fill="#fff"/></g><g id="bn"><path d="m11.85,2.62l.36,1.11-.94-.73h1.17l-.95.69.36-1.07Z" fill="#fff"/></g><g id="bo"><path d="m11.85,4.77l.36,1.11-.94-.69h1.17l-.95.69.36-1.11Z" fill="#fff"/></g><g id="bp"><path d="m11.85,6.92l.36,1.08-.94-.69h1.17l-.95.69.36-1.08Z" fill="#fff"/></g></g><g id="bq"><path d="m11.85,9.08l.36,1.11-.94-.69h1.17l-.95.69.36-1.11Z" fill="#fff"/></g></g></g></svg>